<?xml version="1.0" encoding="UTF-8"?>
<svg id="Layer_1" data-name="Layer 1" xmlns="http://www.w3.org/2000/svg" viewBox="0 0 365.9 365.9">
  <defs>
    <style>
      .cls-1 {
        fill: #555;
        stroke-width: 0px;
      }
    </style>
  </defs>
  <path class="cls-1" d="M278.53,182.73c0,48.89,0,97.78-.01,146.67,0,1.99.08,4.02-.28,5.96-2.55,13.72-18.35,19.36-28.92,10.21-6.12-5.3-11.9-11.01-17.8-16.57-44.95-42.31-89.88-84.65-134.88-126.92-5.23-4.92-8.71-10.61-9.16-17.82-.49-7.95,2.43-14.62,8.22-20.07,9.99-9.41,19.95-18.83,29.94-28.23,40.33-37.95,80.66-75.89,120.99-113.83.91-.85,1.8-1.73,2.77-2.52,5.75-4.69,12.1-5.77,18.86-2.63,6.59,3.07,9.97,8.47,10.22,15.72.15,4.36.04,8.73.04,13.09,0,45.65,0,91.29,0,136.94Z"/>
</svg>