<?xml version="1.0" encoding="UTF-8"?>
<svg id="Layer_1" data-name="Layer 1" xmlns="http://www.w3.org/2000/svg" viewBox="0 0 365.9 365.9">
  <defs>
    <style>
      .cls-1 {
        fill: #215436;
        stroke-width: 0px;
      }
    </style>
  </defs>
  <path class="cls-1" d="M182.89,278.14c-48.89,0-97.78,0-146.67-.01-1.99,0-4.02.08-5.96-.28-13.72-2.55-19.36-18.35-10.21-28.92,5.3-6.12,11.01-11.9,16.57-17.8,42.31-44.95,84.65-89.88,126.92-134.88,4.92-5.23,10.61-8.71,17.82-9.16,7.95-.49,14.62,2.43,20.07,8.22,9.41,9.99,18.83,19.95,28.23,29.94,37.95,40.33,75.89,80.66,113.83,120.99.85.91,1.73,1.8,2.52,2.77,4.69,5.75,5.77,12.1,2.63,18.86-3.07,6.59-8.47,9.97-15.72,10.22-4.36.15-8.73.04-13.09.04-45.65,0-91.29,0-136.94,0Z"/>
</svg>