<?xml version="1.0" encoding="UTF-8" standalone="no"?>
<svg width="900" height="600" version="1.1" xmlns="http://www.w3.org/2000/svg" xmlns:cc="http://creativecommons.org/ns#" xmlns:dc="http://purl.org/dc/elements/1.1/" xmlns:rdf="http://www.w3.org/1999/02/22-rdf-syntax-ns#" xmlns:xlink="http://www.w3.org/1999/xlink">
<defs>
<g id="a">
<g id="b" transform="translate(0 -.32492)">
<path d="m0 0v.5l1-.5z"/>
<path transform="rotate(-36,1,0)" d="m0 0v-.5l1 .5z"/>
</g>
<use transform="scale(-1,1)" width="100%" height="100%" xlink:href="#b"/>
<use transform="rotate(72)" width="100%" height="100%" xlink:href="#b"/>
<use transform="rotate(-72)" width="100%" height="100%" xlink:href="#b"/>
<use transform="matrix(-.30902 .95106 .95106 .30902 0 0)" width="100%" height="100%" xlink:href="#b"/>
</g>
</defs>
<rect width="900" height="600" style="fill:#012169;stroke-width:.86603"/>
<g transform="translate(-225)">
<use transform="matrix(45.4,0,0,45.4,900,120)" width="100%" height="100%" fill="#ffffff" xlink:href="#a"/>
<use transform="matrix(30,0,0,30,900,120)" width="100%" height="100%" fill="#c8102e" xlink:href="#a"/>
<g transform="rotate(82,900,240)">
<use transform="matrix(5.6226 -40.007 40.007 5.6226 900 120)" width="100%" height="100%" fill="#ffffff" xlink:href="#a"/>
<use transform="matrix(3.4793 -24.757 24.757 3.4793 900 120)" width="100%" height="100%" fill="#c8102e" xlink:href="#a"/>
<use transform="matrix(6.3185 -44.958 44.958 6.3185 900 380)" width="100%" height="100%" fill="#ffffff" xlink:href="#a"/>
<use transform="matrix(4.1752 -29.708 29.708 4.1752 900 380)" width="100%" height="100%" fill="#c8102e" xlink:href="#a"/>
</g>
<use transform="matrix(50.4,0,0,50.4,900,480)" width="100%" height="100%" fill="#ffffff" xlink:href="#a"/>
<use transform="matrix(35,0,0,35,900,480)" width="100%" height="100%" fill="#c8102e" xlink:href="#a"/>
</g>
<g transform="scale(1.2)">
<path d="m0 .00029052v30.046l142.43 94.954-142.43 94.954v30.046l45.068 6e-5 142.43-94.954 142.43 94.954 45.068 6e-5-.00029-30.046-142.43-94.954 142.43-94.954v-30.046h-45.068l-142.43 94.954-142.43-94.954z" style="fill-rule:evenodd;fill:#ffffff"/>
<path d="m0 250 125-83.334h27.951l-130.42 83.334zm0-250 125 83.333h-27.951l-97.049-64.699zm222.05 83.333 125-83.333h27.951l-125 83.333zm152.95 166.67-125-83.333h27.951l97.05 64.699z" style="fill:#c8102e"/>
<path d="m187.5.00029052v250m-187.5-125h375" style="stroke-width:83.333;stroke:#ffffff"/>
<path d="m187.5.00029052v250m-187.5-125h375" style="stroke-width:50;stroke:#c8102e"/>
</g>
</svg>