<?xml version="1.0" encoding="UTF-8"?><svg id="a" xmlns="http://www.w3.org/2000/svg" width="2548.67" height="1173.97" xmlns:xlink="http://www.w3.org/1999/xlink" viewBox="0 0 2548.67 1173.97"><defs><style>.j{filter:url(#b);}.k{filter:url(#d);}.l{filter:url(#f);}.m{filter:url(#h);}.n{fill:#fff;stroke-width:0px;}</style><filter id="b" filterUnits="userSpaceOnUse"><feOffset dx="15" dy="10"/><feGaussianBlur result="c" stdDeviation="10"/><feFlood flood-color="#231f20" flood-opacity=".55"/><feComposite in2="c" operator="in"/><feComposite in="SourceGraphic"/></filter><filter id="d" filterUnits="userSpaceOnUse"><feOffset dx="15" dy="10"/><feGaussianBlur result="e" stdDeviation="10"/><feFlood flood-color="#231f20" flood-opacity=".55"/><feComposite in2="e" operator="in"/><feComposite in="SourceGraphic"/></filter><filter id="f" filterUnits="userSpaceOnUse"><feOffset dx="15" dy="10"/><feGaussianBlur result="g" stdDeviation="10"/><feFlood flood-color="#231f20" flood-opacity=".55"/><feComposite in2="g" operator="in"/><feComposite in="SourceGraphic"/></filter><filter id="h" filterUnits="userSpaceOnUse"><feOffset dx="15" dy="10"/><feGaussianBlur result="i" stdDeviation="10"/><feFlood flood-color="#231f20" flood-opacity=".55"/><feComposite in2="i" operator="in"/><feComposite in="SourceGraphic"/></filter></defs><g class="j"><path class="n" d="M164.1,410.2c0-13.95,1.74-28.79,5.23-44.49,3.48-15.7,8.9-31.15,16.23-46.33,7.33-15.18,16.49-29.66,27.48-43.45,10.99-13.78,24.16-25.91,39.52-36.38,15.35-10.47,32.8-18.75,52.35-24.86,19.54-6.1,41.35-9.16,65.43-9.16,29.31,0,56.53,4.54,81.66,13.61,25.13,9.08,46.85,22.07,65.17,39,18.32,16.93,32.72,37.52,43.19,61.77,10.47,24.26,15.7,51.56,15.7,81.92s-4.97,56.97-14.92,82.97c-9.95,26-24,48.68-42.14,68.05-18.15,19.37-40.13,34.73-65.96,46.06-25.83,11.34-54.44,17.01-85.85,17.01-35.95,0-66.74-6.28-92.39-18.84-25.65-12.56-46.68-28.79-63.08-48.68-16.41-19.89-28.45-41.96-36.12-66.22-7.68-24.25-11.52-48.24-11.52-71.97ZM213.83,395.54c0,30.36,4.27,57.93,12.82,82.71,8.55,24.78,20.41,45.89,35.59,63.34,15.18,17.45,32.89,30.88,53.13,40.31,20.23,9.42,42.22,14.13,65.96,14.13,11.86,0,25.99-2.18,42.4-6.54,16.4-4.36,32.19-13,47.37-25.91,15.18-12.91,28.09-31.15,38.74-54.7,10.64-23.56,15.97-54.35,15.97-92.39,0-31.41-4.45-59.15-13.35-83.23-8.9-24.08-20.68-44.23-35.33-60.46-14.66-16.23-31.59-28.53-50.78-36.9-19.2-8.38-39.09-12.56-59.67-12.56-21.98,0-42.32,3.58-60.98,10.73-18.67,7.16-34.81,17.98-48.42,32.45-13.61,14.48-24.26,32.45-31.93,53.92-7.68,21.46-11.52,46.51-11.52,75.12Z"/><path class="n" d="M721.05,456.79v-173c0-7.85-.09-14.13-.26-18.84-.18-4.71-.44-9.16-.79-13.35-.7-9.07-2.45-15.88-5.23-20.42-2.8-4.53-8.56-7.67-17.27-9.42-2.09-.7-4.97-1.13-8.64-1.31-3.66-.17-6.72-.26-9.16-.26-2.8,0-4.19-1.05-4.19-3.14,0-2.79,2.79-4.19,8.38-4.19,5.93,0,12.21.09,18.84.26,6.62.18,12.82.35,18.58.52,5.76.18,10.64.35,14.66.52,4.01.18,6.36.26,7.07.26,1.39,0,4.62-.08,9.68-.26,5.05-.17,10.81-.34,17.27-.52,6.45-.17,12.82-.34,19.11-.52,6.28-.17,11.52-.26,15.7-.26,16.75,0,33.41,1.31,49.99,3.93,16.57,2.62,31.84,8.99,45.8,19.11,3.14,2.45,6.81,5.85,10.99,10.21,4.19,4.37,8.11,9.51,11.78,15.44,3.66,5.94,6.8,12.74,9.42,20.42,2.62,7.68,3.93,16.06,3.93,25.13,0,19.55-4.71,39.18-14.13,58.89-9.42,19.72-25.83,40.4-49.21,62.03,21.63,27.57,41.35,52.7,59.15,75.38,17.8,22.69,34.37,42.23,49.73,58.63,14.3,15.01,26.87,24.78,37.69,29.31,10.81,4.54,19.54,7.33,26.17,8.38,4.88.7,9.07,1.14,12.56,1.31,3.48.18,6.1.26,7.85.26,3.14,0,4.71,1.05,4.71,3.14,0,1.75-.88,2.88-2.62,3.4-1.75.52-5.06.79-9.95.79h-37.17c-14.66,0-26-.7-34.02-2.09-8.03-1.39-15.36-4.01-21.98-7.85-11.17-5.93-21.99-15.26-32.46-28-10.47-12.74-23.21-29.05-38.21-48.94-5.59-7.33-11.17-14.83-16.75-22.51-5.59-7.67-10.91-15-15.97-21.98-5.06-6.98-9.77-13.35-14.13-19.11-4.37-5.76-7.77-10.38-10.21-13.87-2.09-2.09-4.37-3.14-6.8-3.14l-64.38-1.05c-2.45,0-3.66,1.4-3.66,4.19v12.56c0,25.13.08,47.55.26,67.26.17,19.72.96,35.16,2.36,46.33.7,7.68,2.27,14.13,4.71,19.37,2.44,5.24,7.67,8.38,15.7,9.42,3.84.7,8.11,1.23,12.83,1.57,4.71.35,8.29.52,10.73.52,2.79,0,4.19,1.05,4.19,3.14,0,2.79-2.8,4.19-8.38,4.19-7.33,0-14.66-.09-21.99-.26-7.33-.18-14.05-.35-20.15-.52-6.11-.18-11.17-.35-15.18-.52-4.02-.18-6.37-.26-7.07-.26-7.33.34-13.61.61-18.84.79-5.23.17-10.65.34-16.23.52-5.59.17-10.3.26-14.13.26-5.59,0-8.38-1.4-8.38-4.19,0-2.09,1.39-3.14,4.19-3.14,2.44,0,5.05-.17,7.85-.52,2.79-.34,5.41-.87,7.85-1.57,5.23-1.05,8.81-4.19,10.73-9.42,1.91-5.23,3.4-11.69,4.45-19.37,1.39-11.17,2.18-26.61,2.36-46.33.17-19.71.26-42.14.26-67.26ZM762.93,239.03v171.17c0,2.8,1.22,4.89,3.66,6.28,3.84,2.45,11.07,4.45,21.72,6.02,10.64,1.57,21.72,2.36,33.24,2.36,6.28,0,12.91-.61,19.89-1.83,6.98-1.22,13.43-3.93,19.37-8.11,9.07-6.28,16.66-16.31,22.77-30.1,6.1-13.78,9.16-30.62,9.16-50.51,0-32.8-8.03-58.45-24.08-76.95-16.05-18.49-38.21-27.74-66.48-27.74-8.03,0-15.18.35-21.46,1.05-6.28.7-10.82,1.4-13.61,2.09-2.8,1.05-4.19,3.14-4.19,6.28Z"/><path class="n" d="M1193.73,364.66v92.13c0,25.13.08,47.55.26,67.26.17,19.72.96,35.16,2.36,46.33.7,7.68,2.27,14.13,4.71,19.37,2.44,5.24,7.67,8.38,15.7,9.42,3.84.7,8.11,1.23,12.83,1.57,4.71.35,8.29.52,10.73.52,2.79,0,4.19,1.05,4.19,3.14,0,2.79-2.8,4.19-8.38,4.19-7.33,0-14.66-.09-21.99-.26-7.33-.18-14.05-.35-20.15-.52-6.11-.18-11.17-.35-15.18-.52-4.02-.18-6.37-.26-7.07-.26s-3.06.08-7.07.26c-4.02.17-8.64.34-13.87.52-5.23.17-10.65.34-16.23.52-5.59.17-10.3.26-14.13.26-5.59,0-8.38-1.4-8.38-4.19,0-2.09,1.39-3.14,4.19-3.14,2.44,0,5.05-.17,7.85-.52,2.79-.34,5.41-.87,7.85-1.57,5.23-1.05,8.81-4.19,10.73-9.42,1.91-5.23,3.4-11.69,4.45-19.37,1.39-11.17,2.18-26.61,2.36-46.33.17-19.71.26-42.14.26-67.26v-173c0-7.85-.09-14.13-.26-18.84-.18-4.71-.44-9.16-.79-13.35-1.05-17.09-6.98-26.87-17.8-29.31-2.8-.7-5.76-1.22-8.9-1.57-3.14-.34-5.59-.52-7.33-.52-2.8,0-4.19-1.05-4.19-3.14,0-2.79,2.79-4.19,8.38-4.19,4.19,0,9.24.09,15.18.26,5.93.18,11.52.35,16.75.52,5.23.18,9.86.35,13.87.52,4.01.18,6.36.26,7.07.26s3.05-.08,7.07-.26c4.01-.17,8.64-.34,13.87-.52,5.23-.17,10.64-.34,16.23-.52,5.58-.17,10.29-.26,14.13-.26,5.58,0,8.38,1.4,8.38,4.19,0,2.09-1.4,3.14-4.19,3.14-1.75,0-3.58.09-5.5.26-1.92.18-4.45.61-7.59,1.31-6.98,1.4-11.78,4.45-14.39,9.16-2.62,4.71-4.28,11.61-4.97,20.68-.35,4.19-.61,8.64-.79,13.35-.18,4.71-.26,10.99-.26,18.84v80.87Z"/><path class="n" d="M2022.87,286.67l6.81,250.73c.34,10.82.96,19.81,1.83,26.96.87,7.16,2.09,13.09,3.66,17.8s3.57,8.29,6.02,10.73c2.44,2.45,5.41,4.19,8.9,5.23,4.88,1.4,9.86,2.27,14.92,2.62,5.05.35,8.81.52,11.25.52,2.79,0,4.19,1.05,4.19,3.14,0,2.79-3.14,4.19-9.42,4.19-15.01,0-27.4-.26-37.17-.79-9.77-.52-15.88-.79-18.32-.79s-8.46.26-18.06.79c-9.6.52-20.33.79-32.19.79-5.59,0-8.38-1.4-8.38-4.19,0-2.09,1.39-3.14,4.19-3.14,2.09,0,5.24-.17,9.42-.52,4.19-.34,8.2-1.22,12.04-2.62,6.62-1.74,10.9-7.33,12.82-16.75,1.91-9.42,2.88-25.99,2.88-49.73l.52-299.94c0-10.12.43-17.01,1.31-20.68.87-3.66,2.36-5.5,4.45-5.5s4.97,2.09,8.64,6.28,6.89,7.68,9.68,10.47c2.09,2.09,8.11,8.64,18.06,19.63s22.59,24.69,37.95,41.09c15.35,16.41,32.54,34.9,51.56,55.49,19.02,20.59,38.65,41.7,58.89,63.34,12.91,13.96,25.91,28.09,39,42.4,13.09,14.31,25.39,27.74,36.9,40.31,11.52,12.56,21.63,23.65,30.36,33.24,8.72,9.6,15.18,16.49,19.37,20.68l-5.76-265.92c-.35-17.09-1.83-29.13-4.45-36.12-2.62-6.98-7.94-11.52-15.96-13.61-4.89-1.05-9.86-1.74-14.92-2.09-5.06-.34-8.64-.52-10.73-.52-2.8,0-4.19-1.22-4.19-3.66s3.48-3.66,10.47-3.66c5.93,0,11.78.09,17.54.26,5.76.18,11.17.35,16.23.52,5.05.18,9.42.35,13.09.52,3.67.18,6.19.26,7.59.26,2.79,0,8.2-.26,16.23-.79,8.02-.52,17.45-.79,28.27-.79,6.28,0,9.42,1.23,9.42,3.66s-1.92,3.66-5.76,3.66c-1.4,0-3.06.09-4.97.26-1.92.18-4.45.61-7.59,1.31-8.73,1.75-14.13,6.02-16.23,12.82-2.09,6.8-3.14,18.06-3.14,33.76l-1.05,306.74c0,8.73-.09,15.53-.26,20.42-.18,4.89-.44,8.55-.79,10.99-.35,2.44-.79,4.01-1.31,4.71-.52.7-1.31,1.05-2.36,1.05s-2.36-.44-3.93-1.31c-1.57-.88-3.75-2.54-6.54-4.97-2.8-2.44-6.37-5.84-10.73-10.21-4.37-4.36-10.04-10.03-17.01-17.01-1.4-1.39-6.72-6.71-15.97-15.97-9.25-9.24-20.5-20.76-33.76-34.55-13.27-13.78-27.57-28.7-42.92-44.75-15.36-16.05-30.02-31.58-43.97-46.59-15.36-16.4-30.28-32.54-44.75-48.42-14.49-15.88-27.83-30.62-40.04-44.23-12.22-13.61-22.86-25.39-31.93-35.33-9.08-9.95-15.7-17.36-19.89-22.25Z"/></g><g class="k"><path class="n" d="M239.45,804.04c0,17.42,0,31.03.91,38.65.54,5.26,1.63,9.25,7.08,9.98,2.54.36,6.53.73,9.07.73,2.36,0,3.08.54,3.08,1.45,0,1.27-1.27,1.81-3.99,1.81-11.43,0-22.87-.54-27.58-.54s-16.15.54-23.05.54c-2.54,0-3.81-.36-3.81-1.81,0-.91.73-1.45,2.72-1.45,2.72,0,4.9-.36,6.53-.73,3.63-.73,4.54-4.72,5.26-9.98.91-7.62.91-21.23.91-38.65v-31.94c0-27.58,0-32.67-.36-38.47-.36-6.17-1.81-9.07-7.8-10.34-1.45-.36-4.54-.54-7.08-.54-1.81,0-3.08-.36-3.08-1.45,0-1.45,1.45-1.82,4.17-1.82,4.72,0,9.98.18,14.7.18,4.72.18,8.89.36,11.43.36,6.9,0,43.73,0,47.91-.18,3.45-.18,5.63-.18,7.44-.73,1.09-.36,2-1.09,2.9-1.09.73,0,1.27.73,1.27,1.63,0,1.27-.91,3.45-1.45,8.17-.18,1.81-.54,12.52-.91,14.7-.18,1.45-.54,2.54-1.81,2.54s-1.63-.91-1.81-2.9c0-1.45,0-4.36-1.09-6.9-1.27-2.54-5.08-5.26-11.98-5.44l-27.95-.54c-1.09,0-1.63.54-1.63,2.54v45.37c0,1.09.18,1.63,1.27,1.63l23.23-.18c3.08,0,5.63,0,8.17-.18,3.45-.18,5.99-.91,7.8-3.27.91-1.09,1.27-1.82,2.36-1.82.73,0,1.09.54,1.09,1.63s-.91,5.63-1.45,11.25c-.36,3.63-.73,11.98-.73,13.25,0,1.63,0,3.45-1.81,3.45-1.09,0-1.45-1.27-1.45-2.54s-.36-3.45-1.09-5.63c-.91-2.54-3.63-5.81-9.26-6.53-4.54-.54-23.77-.54-26.86-.54-.91,0-1.27.36-1.27,1.63v14.7Z"/><path class="n" d="M347.62,772.1c0-27.58,0-32.67-.36-38.47-.36-6.17-2.18-9.25-6.17-10.16-2-.54-4.36-.73-6.53-.73-1.81,0-2.9-.36-2.9-1.81,0-1.09,1.45-1.45,4.36-1.45,6.9,0,18.33.54,23.59.54,4.54,0,15.24-.54,22.14-.54,2.36,0,3.81.36,3.81,1.45,0,1.45-1.09,1.81-2.9,1.81s-3.27.18-5.44.54c-4.9.91-6.35,3.99-6.71,10.34-.36,5.81-.36,10.89-.36,38.47v31.94c0,17.6,0,31.94.73,39.74.54,4.9,1.81,8.17,7.26,8.89,2.54.36,6.53.73,9.25.73,2,0,2.9.54,2.9,1.45,0,1.27-1.45,1.81-3.45,1.81-11.98,0-23.41-.54-28.31-.54-4.17,0-15.61.54-22.87.54-2.36,0-3.63-.54-3.63-1.81,0-.91.73-1.45,2.9-1.45,2.72,0,4.9-.36,6.53-.73,3.63-.73,4.72-3.81,5.26-9.07.91-7.62.91-21.96.91-39.56v-31.94Z"/><path class="n" d="M457.95,831.99c.36,14.15,2.72,18.87,6.35,20.14,3.08,1.09,6.53,1.27,9.44,1.27,2,0,3.08.36,3.08,1.45,0,1.45-1.63,1.81-4.17,1.81-11.8,0-19.05-.54-22.5-.54-1.63,0-10.16.54-19.6.54-2.36,0-3.99-.18-3.99-1.81,0-1.09,1.09-1.45,2.9-1.45,2.36,0,5.63-.18,8.17-.91,4.72-1.45,5.44-6.71,5.63-22.5l1.63-107.43c0-3.63.54-6.17,2.36-6.17,2,0,3.63,2.36,6.71,5.63,2.18,2.36,29.76,31.94,56.26,58.25,12.34,12.34,36.84,38.47,39.92,41.38h.91l-1.82-81.48c-.18-11.07-1.81-14.52-6.17-16.33-2.72-1.09-7.08-1.09-9.62-1.09-2.18,0-2.9-.54-2.9-1.63,0-1.45,2-1.63,4.72-1.63,9.44,0,18.15.54,21.96.54,2,0,8.89-.54,17.78-.54,2.36,0,4.17.18,4.17,1.63,0,1.09-1.09,1.63-3.27,1.63-1.81,0-3.27,0-5.44.54-5.08,1.45-6.53,5.26-6.71,15.42l-2,114.51c0,3.99-.73,5.62-2.36,5.62-2,0-4.17-2-6.17-3.99-11.43-10.89-34.66-34.66-53.53-53.35-19.78-19.6-39.92-42.28-43.19-45.73h-.54l2,76.22Z"/><path class="n" d="M645.06,809.3c-.91,0-1.27.36-1.63,1.45l-9.8,25.95c-1.82,4.54-2.72,8.89-2.72,11.07,0,3.27,1.63,5.63,7.26,5.63h2.72c2.18,0,2.72.36,2.72,1.45,0,1.45-1.09,1.81-3.08,1.81-5.81,0-13.61-.54-19.24-.54-2,0-11.98.54-21.41.54-2.36,0-3.45-.36-3.45-1.81,0-1.09.73-1.45,2.18-1.45,1.63,0,4.17-.18,5.63-.36,8.35-1.09,11.79-7.26,15.42-16.33l45.55-113.96c2.18-5.26,3.27-7.26,5.08-7.26,1.63,0,2.72,1.63,4.54,5.81,4.36,9.98,33.39,84.02,45,111.61,6.9,16.33,12.16,18.87,15.97,19.78,2.72.54,5.44.73,7.62.73,1.45,0,2.36.18,2.36,1.45,0,1.45-1.63,1.81-8.35,1.81s-19.78,0-34.3-.36c-3.27-.18-5.44-.18-5.44-1.45,0-1.09.73-1.45,2.54-1.63,1.27-.36,2.54-2,1.63-4.17l-14.52-38.47c-.36-.91-.91-1.27-1.81-1.27h-40.47ZM682.08,800.23c.91,0,1.09-.54.91-1.09l-16.33-44.82c-.18-.73-.36-1.63-.91-1.63s-.91.91-1.09,1.63l-16.7,44.64c-.18.73,0,1.27.73,1.27h33.39Z"/><path class="n" d="M793.14,831.99c.36,14.15,2.72,18.87,6.35,20.14,3.08,1.09,6.53,1.27,9.44,1.27,2,0,3.08.36,3.08,1.45,0,1.45-1.63,1.81-4.17,1.81-11.8,0-19.05-.54-22.5-.54-1.63,0-10.16.54-19.6.54-2.36,0-3.99-.18-3.99-1.81,0-1.09,1.09-1.45,2.9-1.45,2.36,0,5.63-.18,8.17-.91,4.72-1.45,5.44-6.71,5.63-22.5l1.63-107.43c0-3.63.54-6.17,2.36-6.17,2,0,3.63,2.36,6.71,5.63,2.18,2.36,29.76,31.94,56.26,58.25,12.34,12.34,36.84,38.47,39.92,41.38h.91l-1.81-81.48c-.18-11.07-1.82-14.52-6.17-16.33-2.72-1.09-7.08-1.09-9.62-1.09-2.18,0-2.9-.54-2.9-1.63,0-1.45,2-1.63,4.72-1.63,9.44,0,18.15.54,21.96.54,2,0,8.89-.54,17.78-.54,2.36,0,4.17.18,4.17,1.63,0,1.09-1.09,1.63-3.27,1.63-1.81,0-3.27,0-5.44.54-5.08,1.45-6.53,5.26-6.71,15.42l-2,114.51c0,3.99-.73,5.62-2.36,5.62-2,0-4.17-2-6.17-3.99-11.43-10.89-34.66-34.66-53.53-53.35-19.78-19.6-39.92-42.28-43.19-45.73h-.54l2,76.22Z"/><path class="n" d="M973.9,839.43c-17.78-15.61-22.5-35.93-22.5-53.53,0-12.34,3.81-33.75,21.23-49.72,13.07-11.98,30.31-19.24,57.35-19.24,11.25,0,17.97.73,26.31,1.81,6.9.91,12.7,2.54,18.15,3.08,2,.18,2.72,1.09,2.72,2.18,0,1.45-.54,3.63-.91,9.98-.36,5.99-.18,15.97-.54,19.6-.18,2.72-.54,4.17-2.18,4.17-1.45,0-1.81-1.45-1.81-3.99-.18-5.63-2.54-11.98-7.08-16.7-5.99-6.35-20.14-11.25-36.84-11.25-15.79,0-26.13,3.99-34.12,11.25-13.25,12.16-16.7,29.4-16.7,47,0,43.19,32.85,64.6,57.16,64.6,16.15,0,25.95-1.81,33.21-10.16,3.08-3.45,5.44-8.71,6.17-11.98.54-2.9.91-3.63,2.36-3.63,1.27,0,1.63,1.27,1.63,2.72,0,2.18-2.18,17.97-3.99,24.14-.91,3.08-1.63,3.99-4.72,5.26-7.26,2.9-21.05,4.17-32.67,4.17-24.86,0-45.73-5.44-62.25-19.78Z"/><path class="n" d="M1134.51,772.1c0-27.58,0-32.67-.36-38.47-.36-6.17-2.18-9.25-6.17-10.16-2-.54-4.36-.73-6.53-.73-1.81,0-2.9-.36-2.9-1.81,0-1.09,1.45-1.45,4.36-1.45,6.9,0,18.33.54,23.59.54,4.54,0,15.24-.54,22.14-.54,2.36,0,3.81.36,3.81,1.45,0,1.45-1.09,1.81-2.9,1.81s-3.27.18-5.44.54c-4.9.91-6.35,3.99-6.71,10.34-.36,5.81-.36,10.89-.36,38.47v31.94c0,17.6,0,31.94.73,39.74.54,4.9,1.81,8.17,7.26,8.89,2.54.36,6.53.73,9.25.73,2,0,2.9.54,2.9,1.45,0,1.27-1.45,1.81-3.45,1.81-11.98,0-23.41-.54-28.31-.54-4.17,0-15.61.54-22.87.54-2.36,0-3.63-.54-3.63-1.81,0-.91.73-1.45,2.9-1.45,2.72,0,4.9-.36,6.53-.73,3.63-.73,4.72-3.81,5.26-9.07.91-7.62.91-21.96.91-39.56v-31.94Z"/><path class="n" d="M1241.94,809.3c-.91,0-1.27.36-1.63,1.45l-9.8,25.95c-1.82,4.54-2.72,8.89-2.72,11.07,0,3.27,1.63,5.63,7.26,5.63h2.72c2.18,0,2.72.36,2.72,1.45,0,1.45-1.09,1.81-3.08,1.81-5.81,0-13.61-.54-19.24-.54-2,0-11.98.54-21.41.54-2.36,0-3.45-.36-3.45-1.81,0-1.09.73-1.45,2.18-1.45,1.63,0,4.17-.18,5.63-.36,8.35-1.09,11.79-7.26,15.42-16.33l45.55-113.96c2.18-5.26,3.27-7.26,5.08-7.26,1.63,0,2.72,1.63,4.54,5.81,4.36,9.98,33.39,84.02,45,111.61,6.9,16.33,12.16,18.87,15.97,19.78,2.72.54,5.44.73,7.62.73,1.45,0,2.36.18,2.36,1.45,0,1.45-1.63,1.81-8.35,1.81s-19.78,0-34.3-.36c-3.27-.18-5.44-.18-5.44-1.45,0-1.09.73-1.45,2.54-1.63,1.27-.36,2.54-2,1.63-4.17l-14.52-38.47c-.36-.91-.91-1.27-1.81-1.27h-40.47ZM1278.96,800.23c.91,0,1.09-.54.91-1.09l-16.33-44.82c-.18-.73-.36-1.63-.91-1.63s-.91.91-1.09,1.63l-16.7,44.64c-.18.73,0,1.27.73,1.27h33.39Z"/><path class="n" d="M1402.55,804.04c0,23.23,0,35.75,3.81,39.02,3.08,2.72,7.8,3.99,21.96,3.99,9.62,0,16.7-.18,21.23-5.08,2.18-2.36,4.36-7.44,4.72-10.89.18-1.63.54-2.72,2-2.72,1.27,0,1.45.91,1.45,3.08,0,2-1.27,15.61-2.72,20.87-1.09,3.99-2,4.9-11.43,4.9-13.07,0-22.5-.36-30.67-.54-8.17-.36-14.7-.54-22.14-.54-2,0-5.99,0-10.34.18-4.17,0-8.89.36-12.52.36-2.36,0-3.63-.54-3.63-1.81,0-.91.73-1.45,2.9-1.45,2.72,0,4.9-.36,6.53-.73,3.63-.73,4.54-4.72,5.26-9.98.91-7.62.91-21.96.91-38.65v-31.94c0-27.58,0-32.67-.36-38.47-.36-6.17-1.81-9.07-7.8-10.34-1.45-.36-3.63-.54-5.99-.54-2,0-3.08-.36-3.08-1.63s1.27-1.63,3.99-1.63c8.53,0,19.96.54,24.86.54,4.36,0,17.6-.54,24.68-.54,2.54,0,3.81.36,3.81,1.63s-1.09,1.63-3.27,1.63c-2,0-4.9.18-7.08.54-4.9.91-6.35,3.99-6.71,10.34-.36,5.81-.36,10.89-.36,38.47v31.94Z"/><path class="n" d="M1690.55,844.51c0,4.9-.18,5.26-2.36,6.53-11.8,6.17-29.58,8.17-43.74,8.17-44.46,0-83.84-21.05-83.84-71.14,0-29.04,15.06-49.36,31.58-59.34,17.42-10.53,33.57-11.8,48.82-11.8,12.52,0,28.49,2.18,32.12,2.9,3.81.73,10.16,1.81,14.34,2,2.18.18,2.54.91,2.54,2.18,0,2-1.27,7.08-1.27,29.76,0,2.9-.54,3.81-2,3.81-1.27,0-1.63-.91-1.81-2.36-.54-4.17-1.45-9.98-6.17-15.06-5.44-5.81-19.96-14.16-40.47-14.16-9.98,0-23.23.73-35.93,11.25-10.16,8.53-16.7,22.14-16.7,44.46,0,39.02,24.86,68.23,63.15,68.23,4.72,0,11.07,0,15.42-2,2.72-1.27,3.45-3.63,3.45-6.71v-17.06c0-9.07,0-15.97-.18-21.41-.18-6.17-1.81-9.07-7.8-10.34-1.45-.36-4.54-.54-7.08-.54-1.63,0-2.72-.36-2.72-1.45,0-1.45,1.27-1.81,3.81-1.81,9.44,0,20.87.54,26.31.54s15.24-.54,21.23-.54c2.36,0,3.63.36,3.63,1.81,0,1.09-1.09,1.45-2.36,1.45-1.45,0-2.72.18-4.9.54-4.9.91-6.71,3.99-6.9,10.34-.18,5.44-.18,12.7-.18,21.78v19.96Z"/><path class="n" d="M1759.34,772.1c0-27.58,0-32.67-.36-38.47-.36-6.17-1.81-9.07-7.8-10.34-1.45-.36-4.54-.54-7.08-.54-2,0-3.08-.36-3.08-1.63s1.27-1.63,3.99-1.63c9.62,0,21.05.54,24.86.54,6.17,0,19.96-.54,25.59-.54,11.43,0,23.59,1.09,33.39,7.8,5.08,3.45,12.34,12.7,12.34,24.86,0,13.43-5.62,25.77-23.95,40.65,16.15,20.33,28.67,36.48,39.38,47.73,10.16,10.53,17.6,11.8,20.32,12.34,2,.36,3.63.54,5.08.54s2.18.54,2.18,1.45c0,1.45-1.27,1.81-3.45,1.81h-17.24c-10.16,0-14.7-.91-19.42-3.45-7.8-4.17-14.7-12.7-24.86-26.68-7.26-9.98-15.61-22.32-17.97-25.04-.91-1.09-2-1.27-3.27-1.27l-15.79-.36c-.91,0-1.45.36-1.45,1.45v2.54c0,16.88,0,31.21.91,38.83.54,5.26,1.63,9.25,7.08,9.98,2.72.36,6.71.73,8.89.73,1.45,0,2.18.54,2.18,1.45,0,1.27-1.27,1.81-3.63,1.81-10.53,0-23.95-.54-26.68-.54-3.45,0-14.88.54-22.14.54-2.36,0-3.63-.54-3.63-1.81,0-.91.73-1.45,2.9-1.45,2.72,0,4.9-.36,6.53-.73,3.63-.73,4.54-4.72,5.26-9.98.91-7.62.91-21.96.91-38.65v-31.94ZM1780.75,786.44c0,2,.36,2.72,1.63,3.27,3.81,1.27,9.25,1.81,13.79,1.81,7.26,0,9.62-.73,12.88-3.08,5.44-3.99,10.71-12.34,10.71-27.22,0-25.77-17.06-33.21-27.77-33.21-4.54,0-7.8.18-9.62.73-1.27.36-1.63,1.09-1.63,2.54v55.17Z"/><path class="n" d="M1893.81,788.07c0-31.03,20.51-71.14,74.95-71.14,45.19,0,73.31,26.31,73.31,67.87s-29.04,74.4-75.13,74.4c-52.08,0-73.13-39.02-73.13-71.14ZM2016.67,791.52c0-40.65-23.41-65.87-53.17-65.87-20.87,0-44.64,11.61-44.64,56.8,0,37.75,20.87,67.69,55.71,67.69,12.7,0,42.1-6.17,42.1-58.62Z"/><path class="n" d="M2092.17,772.1c0-27.58,0-32.67-.36-38.47-.36-6.17-1.82-9.07-7.8-10.34-1.45-.36-4.54-.54-7.08-.54-2,0-3.08-.36-3.08-1.63s1.27-1.63,3.99-1.63c9.62,0,21.05.54,26.5.54,4.36,0,15.79-.54,22.32-.54,2.72,0,3.99.36,3.99,1.63s-1.09,1.63-2.9,1.63c-2,0-3.09.18-5.26.54-4.9.91-6.35,3.99-6.71,10.34-.36,5.81-.36,10.89-.36,38.47v25.41c0,26.31,5.26,37.38,14.16,44.64,8.17,6.71,16.51,7.44,22.68,7.44,7.99,0,17.78-2.54,25.04-9.8,9.98-9.98,10.53-26.31,10.53-45v-22.68c0-27.58,0-32.67-.36-38.47-.36-6.17-1.81-9.07-7.8-10.34-1.45-.36-4.54-.54-6.53-.54s-3.09-.36-3.09-1.63,1.27-1.63,3.81-1.63c9.25,0,20.69.54,20.87.54,2.18,0,13.61-.54,20.69-.54,2.54,0,3.81.36,3.81,1.63s-1.09,1.63-3.27,1.63c-2,0-3.08.18-5.26.54-4.9.91-6.35,3.99-6.71,10.34-.36,5.81-.36,10.89-.36,38.47v19.42c0,20.14-2,41.56-17.24,54.62-12.88,11.07-25.95,13.07-37.75,13.07-9.62,0-27.04-.54-40.29-12.52-9.25-8.35-16.15-21.78-16.15-48.09v-26.49Z"/><path class="n" d="M2272.74,772.1c0-27.58,0-32.67-.36-38.47-.36-6.17-1.81-9.07-7.8-10.34-1.45-.36-4.54-.54-7.08-.54-2,0-3.08-.36-3.08-1.63s1.27-1.63,3.99-1.63c9.62,0,21.05.54,26.13.54,7.44,0,17.97-.54,26.31-.54,22.68,0,30.85,7.62,33.75,10.34,3.99,3.81,9.07,11.98,9.07,21.59,0,25.77-18.87,43.92-44.64,43.92-.91,0-2.9,0-3.81-.18s-2.18-.36-2.18-1.63c0-1.45,1.27-2,5.08-2,10.16,0,24.32-11.43,24.32-29.94,0-5.99-.54-18.15-10.71-27.22-6.53-5.99-13.97-7.08-18.15-7.08-2.72,0-5.44.18-7.08.73-.91.36-1.45,1.45-1.45,3.45v72.59c0,16.7,0,31.03.91,38.84.54,5.08,1.63,9.07,7.08,9.8,2.54.36,6.53.73,9.25.73,2,0,2.9.54,2.9,1.45,0,1.27-1.45,1.81-3.45,1.81-11.98,0-23.41-.54-28.13-.54-4.17,0-15.61.54-22.87.54-2.36,0-3.63-.54-3.63-1.81,0-.91.73-1.45,2.9-1.45,2.72,0,4.9-.36,6.53-.73,3.63-.73,4.54-4.72,5.26-9.98.91-7.62.91-21.96.91-38.65v-31.94Z"/></g><g class="l"><path class="n" d="M522.45,952.73c3.88.15,7.71.23,11.52.23s7.68-.08,11.63-.23c0,1.07.11,1.75.34,2.05,1.44,2.81,3.06,6.04,4.85,9.69,1.79,3.65,3.65,7.47,5.59,11.46,1.94,3.99,3.99,8.02,6.16,12.09,2.17,4.07,4.39,7.92,6.67,11.57,2.43-4.56,4.9-9.08,7.41-13.57,2.51-4.48,4.86-8.72,7.07-12.71,2.2-3.99,4.12-7.62,5.76-10.89,1.63-3.27,2.75-6,3.36-8.21.08-.15.09-.4.06-.74-.04-.34-.06-.59-.06-.74,4.11.23,8.17.3,12.2.23,4.03-.08,8.13-.19,12.31-.34-.23.84-.34,1.75-.34,2.74-.23,12.16-.34,24.33-.34,36.49s.11,24.82.34,37.97c0,1.22.23,2.17.68,2.85-1.14-.15-2.62-.25-4.45-.29-1.82-.04-3.75-.06-5.76-.06s-3.99.04-5.93.11c-1.94.08-3.59.11-4.96.11.23-.53.42-1.48.57-2.85.23-4.11.38-7.91.46-11.4.08-3.5.11-7.22.11-11.17v-6.9c0-2.39-.04-5.04-.11-7.92v-1.43c0-.64.02-1.31.06-2,.04-.68.09-1.35.17-2,.08-.65.15-1.2.23-1.65-.15.3-.38.7-.68,1.2-.3.5-.63,1.03-.97,1.6-.34.57-.67,1.12-.97,1.65-.3.53-.53.95-.68,1.25-2.74,4.56-5.42,9.14-8.04,13.74-2.62,4.6-4.98,8.84-7.07,12.71-2.09,3.88-3.76,7.15-5.02,9.81-1.25,2.66-1.88,4.3-1.88,4.9,0,.3.04.49.11.57-.68-.08-1.52-.11-2.51-.11h-5.13c-3.65-6.54-7.32-13.55-11-21.04-3.69-7.49-7.62-15.45-11.8-23.89.07.99.11,2.24.11,3.76v3.65c0,5.93-.04,11.82-.11,17.67-.08,5.85-.04,11.86.11,18.02,0,.3.04.63.11.97.08.34.15.63.23.86-3.42-.15-6.8-.23-10.15-.23s-6.77.08-10.26.23c.23-.46.34-1.1.34-1.94.15-6.31.3-12.6.46-18.87s.23-12.6.23-18.99-.08-12.6-.23-18.87-.3-12.52-.46-18.76c0-.76-.11-1.56-.34-2.39Z"/><path class="n" d="M694.4,951.25c7.37,0,13.83,1.05,19.38,3.14,5.55,2.09,10.17,5,13.85,8.72,3.69,3.73,6.44,8.1,8.27,13.11,1.82,5.02,2.74,10.42,2.74,16.19,0,5.47-.97,10.74-2.91,15.79-1.94,5.06-4.77,9.48-8.5,13.28-3.73,3.8-8.34,6.84-13.85,9.12-5.51,2.28-11.84,3.42-18.99,3.42s-13.38-1.16-18.7-3.48c-5.32-2.32-9.75-5.4-13.28-9.24-3.54-3.84-6.18-8.27-7.92-13.28-1.75-5.02-2.62-10.22-2.62-15.62,0-5.7.84-11.04,2.51-16.02,1.67-4.98,4.26-9.33,7.75-13.06,3.5-3.72,7.92-6.67,13.28-8.84,5.36-2.17,11.69-3.25,18.99-3.25ZM695.32,968.92c-4.26,0-7.85.63-10.78,1.88-2.93,1.25-5.3,2.95-7.13,5.07-1.82,2.13-3.14,4.54-3.93,7.24-.8,2.7-1.2,5.53-1.2,8.49,0,3.19.4,6.21,1.2,9.07.8,2.85,2.11,5.38,3.93,7.58,1.82,2.21,4.22,3.95,7.18,5.25,2.96,1.29,6.65,1.94,11.06,1.94,4.03,0,7.49-.61,10.38-1.83,2.89-1.21,5.26-2.91,7.13-5.07,1.86-2.17,3.23-4.73,4.1-7.7.87-2.96,1.31-6.23,1.31-9.81,0-6.92-1.94-12.33-5.82-16.25-3.88-3.91-9.69-5.87-17.45-5.87Z"/><path class="n" d="M772.85,952.61c3.8.38,7.6.51,11.4.4,3.8-.11,7.64-.25,11.52-.4.08.38.25.85.51,1.42.27.57.59,1.08.97,1.54,2.28,2.81,4.77,6.03,7.47,9.64,2.7,3.61,5.57,7.43,8.61,11.46,3.04,4.03,6.23,8.12,9.58,12.26,3.34,4.14,6.8,8.12,10.38,11.92.84.84,1.8,1.9,2.91,3.19,1.1,1.29,2,2.51,2.68,3.65-.08-3.5-.13-7.09-.17-10.78-.04-3.69-.06-7.66-.06-11.92s-.04-8.87-.11-13.85c-.08-4.98-.15-10.51-.23-16.59,0-.76-.11-1.37-.34-1.83,3.42.15,6.86.25,10.32.29,3.46.04,6.97-.02,10.55-.17-.15.61-.23,1.22-.23,1.82-.08,2.81-.15,5.19-.23,7.13-.08,1.94-.15,3.8-.23,5.59-.08,1.79-.13,3.65-.17,5.59-.04,1.94-.06,4.28-.06,7.01,0,3.42.02,7.22.06,11.4.04,4.18.09,8.46.17,12.83.08,4.37.15,8.67.23,12.88.07,4.22.15,8,.23,11.35,0,.68.04,1.41.11,2.17.08.76.19,1.41.34,1.94-3.88,0-7.77-.02-11.69-.06-3.92-.04-8.12-.02-12.6.06-.15-.38-.42-.82-.8-1.31-.38-.49-.76-1.01-1.14-1.54-3.57-3.88-6.69-7.37-9.35-10.49-2.66-3.12-5.25-6.2-7.75-9.24-2.51-3.04-5.19-6.23-8.04-9.58-2.85-3.34-6.21-7.22-10.09-11.63-.91-1.29-1.73-2.41-2.45-3.36-.72-.95-1.5-2-2.34-3.14.15.91.26,1.98.34,3.19.07,1.22.11,2.24.11,3.08v42.76c0,.53.11.95.34,1.25-3.27,0-6.58-.02-9.92-.06-3.35-.04-6.96-.02-10.83.06.15-.46.23-.99.23-1.6,0-3.12.04-6.56.11-10.32.08-3.76.13-7.58.17-11.46.04-3.88.07-7.68.11-11.4.04-3.72.06-7.18.06-10.38s-.02-6.06-.06-8.61c-.04-2.55-.08-5.02-.11-7.41-.04-2.39-.1-4.85-.17-7.35-.08-2.51-.11-5.32-.11-8.44v-1.54c0-.57-.08-1.04-.23-1.42Z"/><path class="n" d="M896.23,952.61c5.78.15,11.52.25,17.22.29,5.7.04,11.48.06,17.33.06s11.84-.02,17.96-.06c6.12-.04,12.52-.09,19.21-.17-.08,1.52-.13,3.17-.17,4.96-.04,1.79-.02,3.55.06,5.3.07,1.75.21,3.38.4,4.9.19,1.52.47,2.74.86,3.65-.3-.15-.76-.32-1.37-.51-.61-.19-1.14-.29-1.6-.29h-23.09c-3.99,0-8.13.02-12.43.06-4.3.04-8.88.06-13.74.06v12.66c7.75.38,15.51.59,23.26.63,7.75.04,15.77-.25,24.06-.85-.53,2.66-.87,5.38-1.03,8.15-.15,2.78.04,5.64.57,8.61-.15-.15-.63-.25-1.42-.29-.8-.04-1.27-.06-1.43-.06-7.37-.15-14.63-.23-21.78-.23s-14.52.08-22.12.23v14.48c2.43.08,5.83.15,10.21.23,4.37.08,8.97.13,13.8.17,4.83.04,9.46.02,13.91-.06,4.45-.08,8-.27,10.66-.57.38,0,.82-.09,1.31-.29.49-.19.93-.4,1.31-.63.46-.3.87-.57,1.25-.8-.68,1.29-1.2,2.89-1.54,4.79-.34,1.9-.57,3.82-.68,5.76-.11,1.94-.13,3.78-.06,5.53.08,1.75.19,3.16.34,4.22-11.94,0-23.68-.04-35.23-.11-11.56-.07-23.41-.04-35.58.11.15-1.6.27-3.97.34-7.13.08-3.15.11-6.82.11-11s-.02-8.76-.06-13.74c-.04-4.98-.1-10.07-.17-15.28-.08-5.21-.13-10.41-.17-15.62-.04-5.21-.06-10.13-.06-14.77,0-.99-.04-1.6-.11-1.83-.08-.23-.19-.42-.34-.57Z"/><path class="n" d="M1048.45,1002.56c-.15,2.51-.25,4.49-.29,5.93-.04,1.45-.04,2.96,0,4.56.04,1.6.08,3.61.11,6.04.04,2.43.06,5.93.06,10.49,0,.53.09,1.07.29,1.6.19.53.36.99.51,1.37-3.57-.15-7.15-.21-10.72-.17-3.57.04-7.38.1-11.4.17l.23-3.19c.08-1.75.15-3.17.23-4.28.07-1.1.13-2.09.17-2.96.04-.87.06-1.77.06-2.68v-3.59c0-1.48-.02-3.36-.06-5.64-.04-2.28-.06-5.21-.06-8.78-2.96-5.47-5.99-11-9.06-16.59-3.08-5.59-5.99-10.68-8.72-15.28-2.74-4.6-5.23-8.44-7.47-11.52-2.24-3.08-3.97-4.88-5.19-5.42,4.33.15,8.63.23,12.88.23s8.63-.07,13.11-.23v.85c0,.34.07.63.23.86.99,2.05,2.15,4.43,3.48,7.13,1.33,2.7,2.74,5.46,4.22,8.27,1.48,2.81,2.94,5.55,4.39,8.21,1.44,2.66,2.81,4.94,4.1,6.84,1.29-2.28,2.72-4.86,4.28-7.75,1.56-2.89,3.1-5.76,4.62-8.61,1.52-2.85,2.95-5.53,4.28-8.04,1.33-2.51,2.38-4.52,3.14-6.04.15-.3.15-.84,0-1.6,4.26.3,8.51.42,12.77.34,4.26-.08,8.55-.19,12.88-.34-.84.38-1.52.78-2.05,1.2-.53.42-.99.89-1.37,1.43-3.19,4.33-7.26,10.32-12.2,17.96s-10.76,17.39-17.45,29.25Z"/><path class="n" d="M1167.72,952.61c5.78.15,11.57.25,17.39.29,5.82.04,11.73.06,17.73.06s12.12-.02,18.36-.06c6.23-.04,12.69-.09,19.38-.17-.15,2.13-.27,4.03-.34,5.7-.08,1.67-.11,3.21-.11,4.62s.11,2.76.34,4.05c.23,1.29.65,2.62,1.25,3.99-.3-.08-.76-.15-1.37-.23-.61-.08-1.14-.11-1.6-.11h-23.66c-8.02,0-16.93.04-26.74.11v11.63c7.75.38,15.54.59,23.38.63,7.83.04,15.89-.25,24.17-.86-.53,2.66-.88,5.51-1.03,8.55-.15,3.04.04,6.04.57,9.01-.15-.15-.63-.25-1.43-.29-.8-.04-1.27-.06-1.42-.06-14.52-.23-29.23-.23-44.13,0v14.71c8.28.23,16.55.3,24.8.23,8.25-.08,16.74-.23,25.48-.46.61-.15,1.1-.32,1.48-.51.38-.19.87-.47,1.48-.85-.68,1.29-1.2,2.79-1.54,4.5-.34,1.71-.55,3.46-.63,5.25-.08,1.79-.06,3.57.06,5.36.11,1.79.29,3.4.51,4.85-12.01,0-23.95-.04-35.8-.11-11.86-.07-23.91-.04-36.15.11.15-1.6.27-3.97.34-7.13.08-3.15.11-6.82.11-11s-.02-8.76-.06-13.74c-.04-4.98-.1-10.07-.17-15.28-.08-5.21-.13-10.41-.17-15.62-.04-5.21-.06-10.13-.06-14.77,0-.99-.04-1.6-.11-1.83-.08-.23-.19-.42-.34-.57Z"/><path class="n" d="M1297.59,1031.06c-.23.53-.23,1.03,0,1.48-4.41-.15-8.84-.23-13.28-.23s-8.95.08-13.51.23c.61-.61,1.23-1.18,1.88-1.71.64-.53,1.16-1.1,1.54-1.71,4.64-6.08,9.03-12.35,13.17-18.81,4.14-6.46,8.42-12.77,12.83-18.93-4.41-6.16-8.71-12.03-12.88-17.62-4.18-5.59-8.55-11.42-13.11-17.5-.53-.61-1.08-1.23-1.65-1.88-.57-.64-1.16-1.2-1.77-1.65,4.56.15,9.12.23,13.68.23s9.2-.08,13.91-.23c-.15.15-.13.44.06.86.19.42.32.7.4.86,2.2,3.35,4.46,6.78,6.78,10.32,2.32,3.53,4.92,7.28,7.81,11.23,2.58-3.72,4.88-7.32,6.9-10.78,2.01-3.46,4.24-7.01,6.67-10.66.15-.3.25-.63.29-.97.04-.34.02-.63-.06-.86,4.56.15,9.2.25,13.91.29,4.71.04,9.27-.17,13.68-.63-1.07.61-1.84,1.14-2.34,1.6-.5.46-.93.91-1.31,1.37-3.88,5.25-7.89,10.85-12.03,16.82-4.14,5.97-8.65,12.45-13.51,19.44,4.86,7.15,9.69,14.08,14.48,20.81,4.79,6.73,9.01,12.6,12.66,17.62.3.53.61.95.91,1.25.61.76,1.48,1.25,2.62,1.48-4.87-.3-9.46-.46-13.8-.46s-8.97.08-13.91.23c0-.68-.11-1.25-.34-1.71-2.51-3.8-5.21-7.92-8.1-12.37-2.89-4.45-5.59-8.53-8.1-12.26-.68.91-1.75,2.53-3.19,4.85-1.45,2.32-2.95,4.79-4.5,7.41-1.56,2.62-2.98,5.13-4.28,7.53-1.29,2.39-2.13,4.09-2.51,5.07Z"/><path class="n" d="M1450.85,959.23c-.61,1.75-1.24,3.52-1.88,5.3-.65,1.79-1.2,3.59-1.65,5.42-.46,1.83-.78,3.65-.97,5.47-.19,1.82-.13,3.57.17,5.25-1.6-2.13-3.48-3.91-5.64-5.36-2.17-1.44-4.41-2.62-6.73-3.53-2.32-.91-4.62-1.56-6.9-1.94-2.28-.38-4.37-.57-6.27-.57-5.78,0-10.36.86-13.74,2.57-3.38,1.71-5.95,3.8-7.7,6.27-1.75,2.47-2.87,5.09-3.36,7.87-.5,2.78-.74,5.19-.74,7.24,0,.68.06,1.71.17,3.08.11,1.37.4,2.87.86,4.5.46,1.64,1.2,3.31,2.22,5.02,1.03,1.71,2.45,3.27,4.28,4.67,1.82,1.41,4.1,2.57,6.84,3.48,2.74.91,6.12,1.37,10.15,1.37,3.19,0,6.23-.32,9.12-.97,2.89-.64,5.49-1.48,7.81-2.51,2.32-1.03,4.35-2.17,6.1-3.42,1.75-1.25,3.12-2.49,4.1-3.71-.3,1.6-.4,3.25-.29,4.96.11,1.71.32,3.4.63,5.07.3,1.67.68,3.33,1.14,4.96.46,1.64.87,3.17,1.25,4.62-.3.38-1.18,1.1-2.62,2.17-1.45,1.07-3.5,2.15-6.16,3.25-2.66,1.1-5.93,2.09-9.81,2.96s-8.36,1.31-13.46,1.31c-6.01,0-11.23-.67-15.68-2-4.45-1.33-8.25-3.1-11.4-5.3-3.16-2.2-5.72-4.75-7.7-7.64-1.98-2.89-3.54-5.91-4.68-9.07-1.14-3.15-1.92-6.33-2.34-9.52-.42-3.19-.63-6.23-.63-9.12,0-4.48.83-9.1,2.51-13.85,1.67-4.75,4.35-9.06,8.04-12.94,3.69-3.88,8.48-7.07,14.37-9.58,5.89-2.51,13.02-3.76,21.38-3.76,4.86,0,9.03.42,12.49,1.25,3.46.84,6.33,1.77,8.61,2.79,2.28,1.03,4.05,1.94,5.3,2.74,1.25.8,2.18,1.2,2.79,1.2Z"/><path class="n" d="M1505.35,1028.78c0,.68.02,1.33.06,1.94.04.61.21,1.22.51,1.82-3.42-.15-6.84-.23-10.26-.23s-6.92.08-10.49.23c.15-.61.23-1.14.23-1.6v-1.48c.15-2.28.27-5.4.34-9.35.07-3.95.13-8.3.17-13.06.04-4.75.07-9.71.11-14.88.04-5.17.04-10.13,0-14.88-.04-4.75-.11-9.08-.23-13-.11-3.91-.25-7.05-.4-9.41-.08-.38-.11-.76-.11-1.14s-.08-.76-.23-1.14c7.07.61,14.1.61,21.09,0-.38,1.75-.61,4.22-.68,7.41-.08,3.19-.11,6.42-.11,9.69s.04,6.25.11,8.95c.07,2.7.07,4.43,0,5.19,5.62.15,11.27.21,16.93.17,5.66-.04,11.53-.13,17.62-.29,0-.76.02-1.98.06-3.65.04-1.67.08-3.59.11-5.76.04-2.17.07-4.43.11-6.79.04-2.35.04-4.56,0-6.61-.04-2.05-.11-3.84-.23-5.36-.11-1.52-.29-2.51-.51-2.96,6.84.53,13.72.53,20.64,0-.15.38-.23.7-.23.97v.74c-.15,4.03-.27,8.42-.34,13.17-.08,4.75-.13,9.62-.17,14.6-.04,4.98-.04,9.92,0,14.82.04,4.9.07,9.45.11,13.63.04,4.18.09,7.87.17,11.06.08,3.19.15,5.59.23,7.18.08.61.11,1.24.11,1.88s.07,1.27.23,1.88c-3.42-.15-6.84-.23-10.26-.23s-6.92.08-10.49.23c.23-.61.36-1.18.4-1.71.04-.53.06-1.06.06-1.6.07-2.58.11-4.98.11-7.18v-13.06c0-2.24-.04-4.73-.11-7.47-5.63-.15-11.27-.25-16.93-.29-5.66-.04-11.54.06-17.62.29v7.01c0,2.17-.02,4.29-.06,6.38-.04,2.09-.06,4.24-.06,6.44v7.41Z"/><path class="n" d="M1689.27,1032.55c-1.98-.08-4.07-.11-6.27-.11h-13.06c-2.17,0-4.2.04-6.1.11.15-.15.21-.32.17-.51-.04-.19-.1-.36-.17-.51l-7.3-15.28c-5.25-.23-10.57-.32-15.96-.29-5.4.04-11.1.17-17.1.4l-7.75,15.05c-.15.38-.15.76,0,1.14-3.95-.15-7.91-.21-11.86-.17-3.95.04-8.02.1-12.2.17.38-.15.84-.68,1.37-1.6,2.36-4.33,4.94-9.25,7.75-14.77,2.81-5.51,5.64-11.14,8.5-16.88,2.85-5.74,5.59-11.38,8.21-16.93,2.62-5.55,4.9-10.49,6.84-14.82,1.94-4.33,3.44-7.85,4.5-10.55,1.06-2.7,1.44-4.12,1.14-4.28,1.52.08,2.85.13,3.99.17,1.14.04,2.18.06,3.14.06h10.66c2.05,0,4.29-.08,6.73-.23.08,1.22.59,3.21,1.54,5.99.95,2.78,2.18,6.04,3.71,9.81,1.52,3.76,3.21,7.87,5.07,12.31,1.86,4.45,3.82,8.95,5.87,13.51,2.05,4.56,4.07,8.99,6.04,13.28,1.98,4.3,3.82,8.19,5.53,11.69,1.71,3.5,3.17,6.42,4.39,8.78,1.21,2.36,2.09,3.84,2.62,4.45ZM1650.39,1000.39c-1.29-4.18-2.7-8.32-4.22-12.43-1.52-4.11-3.16-8.21-4.9-12.31-1.98,4.18-3.82,8.29-5.53,12.31-1.71,4.03-3.4,8.1-5.07,12.2,3.27.15,6.52.28,9.75.4,3.23.11,6.56.06,9.98-.17Z"/><path class="n" d="M1780.72,1032.55c-3.8-4.56-7.32-8.87-10.55-12.94-3.23-4.07-6.4-8.08-9.52-12.03-3.12-3.95-6.27-7.98-9.46-12.09-3.19-4.1-6.69-8.51-10.49-13.23.15.91.27,1.98.34,3.19.07,1.22.11,2.24.11,3.08v42.76c0,.53.11.95.34,1.25-3.27,0-6.58-.02-9.92-.06-3.35-.04-6.96-.02-10.83.06.15-.46.23-.99.23-1.6,0-3.12.04-6.56.11-10.32.08-3.76.13-7.58.17-11.46.04-3.88.08-7.68.11-11.4.04-3.72.06-7.18.06-10.38s-.02-6.06-.06-8.61c-.04-2.55-.08-5.02-.11-7.41-.04-2.39-.1-4.85-.17-7.35-.08-2.51-.11-5.32-.11-8.44,0-.46-.02-.97-.06-1.54-.04-.57-.13-1.04-.29-1.42,4.11.15,8.15.25,12.14.29,3.99.04,7.85-.02,11.57-.17-.08.23-.06.65.06,1.25.11.61.36,1.14.74,1.6l39.45,51.88c.15-8.97.17-17.77.06-26.4-.11-8.63-.29-17.28-.51-25.94,0-.46-.06-.91-.17-1.37-.11-.46-.32-.83-.63-1.14,3.57.15,7.09.23,10.55.23s6.94-.07,10.43-.23c-.23.68-.34,1.48-.34,2.39-.68,25.39-.68,50.25,0,74.57,0,.53.04,1.07.11,1.6.08.53.19.99.34,1.37-1.75-.08-3.65-.13-5.7-.17-2.05-.04-4.14-.06-6.27-.06s-4.2.02-6.21.06c-2.02.04-3.86.1-5.53.17Z"/><path class="n" d="M1913.56,958.54c-.15.61-.34,1.71-.57,3.31-.23,1.6-.42,3.36-.57,5.3s-.21,3.84-.17,5.7c.04,1.86.25,3.33.63,4.39-1.14-1.37-2.64-2.57-4.5-3.59-1.86-1.03-3.95-1.86-6.27-2.51-2.32-.64-4.79-1.14-7.41-1.48-2.62-.34-5.26-.51-7.92-.51-3.12,0-6.33.32-9.63.97-3.31.65-6.33,1.82-9.07,3.53-2.74,1.71-5,4.07-6.78,7.07-1.79,3-2.68,6.82-2.68,11.46.15,8.06,2.03,13.99,5.64,17.79,3.61,3.8,9.07,5.89,16.36,6.27,2.05,0,4.22-.09,6.5-.29,2.28-.19,4.48-.61,6.61-1.25,2.13-.65,4.09-1.6,5.87-2.85,1.79-1.25,3.21-2.98,4.28-5.19.15-.91.23-1.71.23-2.39v-2.96c-3.19-.15-6.61-.19-10.26-.11-3.65.08-6.99.19-10.03.34,0-.76.02-1.9.06-3.42.04-1.52.06-3.17.06-4.96s-.08-3.5-.23-5.13c-.15-1.63-.46-2.94-.91-3.93,6.16.23,12.6.36,19.33.4,6.73.04,13.21-.02,19.44-.17-.3.99-.55,2.74-.74,5.25-.19,2.51-.28,5.23-.28,8.15s.07,5.78.23,8.55c.15,2.78.42,4.85.8,6.21-.23.15-.55.36-.97.63-.42.27-.74.59-.97.97-1.44,2.66-3.06,5.15-4.85,7.47-1.79,2.32-4.09,4.39-6.9,6.21-2.81,1.82-6.29,3.29-10.43,4.39-4.14,1.1-9.29,1.69-15.45,1.77-6.16.15-11.86-.63-17.1-2.34-5.25-1.71-9.79-4.26-13.63-7.64-3.84-3.38-6.84-7.6-9.01-12.66-2.17-5.05-3.25-10.89-3.25-17.5s1.14-12.18,3.42-17.39c2.28-5.21,5.43-9.65,9.46-13.34,4.03-3.69,8.82-6.56,14.37-8.61,5.55-2.05,11.59-3.08,18.13-3.08,3.95,0,7.7.3,11.23.91,3.54.61,6.63,1.31,9.29,2.11,2.66.8,4.77,1.6,6.33,2.39,1.56.8,2.34,1.39,2.34,1.77Z"/><path class="n" d="M1955.86,952.61c5.78.15,11.52.25,17.22.29,5.7.04,11.48.06,17.33.06s11.84-.02,17.96-.06c6.12-.04,12.52-.09,19.21-.17-.08,1.52-.13,3.17-.17,4.96-.04,1.79-.02,3.55.06,5.3.07,1.75.21,3.38.4,4.9.19,1.52.47,2.74.86,3.65-.3-.15-.76-.32-1.37-.51-.61-.19-1.14-.29-1.6-.29h-23.09c-3.99,0-8.13.02-12.43.06-4.3.04-8.88.06-13.74.06v12.66c7.75.38,15.51.59,23.26.63,7.75.04,15.77-.25,24.06-.85-.53,2.66-.87,5.38-1.03,8.15-.15,2.78.04,5.64.57,8.61-.15-.15-.63-.25-1.42-.29-.8-.04-1.27-.06-1.43-.06-7.37-.15-14.63-.23-21.78-.23s-14.52.08-22.12.23v14.48c2.43.08,5.83.15,10.21.23,4.37.08,8.97.13,13.8.17,4.83.04,9.46.02,13.91-.06,4.45-.08,8-.27,10.66-.57.38,0,.82-.09,1.31-.29.49-.19.93-.4,1.31-.63.46-.3.87-.57,1.25-.8-.68,1.29-1.2,2.89-1.54,4.79-.34,1.9-.57,3.82-.68,5.76-.11,1.94-.13,3.78-.06,5.53.08,1.75.19,3.16.34,4.22-11.94,0-23.68-.04-35.23-.11-11.56-.07-23.41-.04-35.58.11.15-1.6.27-3.97.34-7.13.08-3.15.11-6.82.11-11s-.02-8.76-.06-13.74c-.04-4.98-.1-10.07-.17-15.28-.08-5.21-.13-10.41-.17-15.62-.04-5.21-.06-10.13-.06-14.77,0-.99-.04-1.6-.11-1.83-.08-.23-.19-.42-.34-.57Z"/></g><g class="m"><path class="n" d="M1489.28,400.69c-1.51,21.24,8.97,49.04,17.76,62.73l30-31.24c-1.56-4.44-6.73-14.33-6.75-33.84l-41.01,2.34Z"/><path class="n" d="M1530.83,389.84c1.76-15.38,6.57-26.54,13.19-36.7l-28.62-30.57c-13.88,17.73-24.07,40.58-26.13,70.75l41.56-3.48Z"/><path class="n" d="M1550.63,344.41c20.77-22.35,39.65-27.05,54.52-28.95l1.98-41.35c-29.01,1.89-63.11,14.53-85.51,41.04l29.01,29.27Z"/><path class="n" d="M1613.16,314.89c19.35-.15,30.8,5.23,36.59,7.76l30.34-30.24c-15.58-9.59-38.9-19.24-66.76-18.52l-.17,40.99Z"/><path class="n" d="M1616.11,524.41c32.52-.13,59.23-13.72,75.61-26.6l-32.35-27.34c-9.35,5.4-21.27,12.44-45.68,12.95,1.01,13.86,2.62,27.09,2.42,40.99Z"/><path class="n" d="M1605.19,482.8c-23.6-3-42.93-13.92-57.56-32.5l-28.83,29.63c20.24,24.52,53.37,42.87,89.9,44.36-1.19-14.22-2.51-27.6-3.5-41.48Z"/><path class="n" d="M1739.58,391.77c-2.21-37.2-20.69-68.64-44.21-88.31l-29.59,28.75c17.35,14.21,30.05,33.48,32.46,57.5l41.34,2.07Z"/><path class="n" d="M1698.78,397.76c.32,29.75-13.65,51.98-29.9,65.75l30.85,27.46c23.36-21.39,40.92-56.23,40.06-93.02-14.23.04-27.29.04-41.01-.19Z"/><path class="n" d="M1483.37,289.35c-2.82-4.29-6.04-7.59-10.29-11.34-24.59,31.29-42.63,78.25-42.63,121.14s12.39,82.42,35.57,113.21c4.72-4.39,6.02-6.21,10.26-11.55-20.98-28.17-30.92-63.91-30.92-101.66s16-81.24,38.01-109.8Z"/><path class="n" d="M1614.53,215.08c-46.53,0-99.03,19.55-131.39,50.92,4.84,5.22,6.91,8.27,11.47,11.54,30.52-29.75,77.44-47.55,119.93-47.55,37.82,0,72.76,12.69,100.83,32.06,5.32-5.14,7.73-6.28,11.79-10.16-28.95-21.98-71.3-36.81-112.62-36.81Z"/><path class="n" d="M1741.42,513.89c2.56,3.01,8.09,8.46,10.55,11.11,26.37-31.85,46.64-81.27,46.64-125.85,0-48.06-18.43-91.79-48.59-124.57-1.47,4.93-4.8,9.22-9.98,11.28,27.12,30.01,43.66,69.75,43.66,113.29,0,40.7-18.25,85.52-42.28,114.74Z"/><path class="n" d="M1725.81,528.21c-29.32,24.37-70.27,40.11-111.28,40.11-43.78,0-82.91-16.51-114.52-42.96-3.23,5.25-6.53,7.66-10.74,11.37,33.89,28,77.58,46.5,125.26,46.5,44.48,0,91.3-17.37,123.06-45.14-3.93-2.94-6.43-6.93-11.78-9.88Z"/><path class="n" d="M1429.6,226.43c-2.89-4.13-5.92-7.15-9.55-11.52-44.31,44.43-71.92,118.18-71.92,184.24s25.61,130.17,65.09,176.63c3.77-4.18,5.96-7.03,9.85-12.05-36.93-43.78-60.04-102.95-60.04-164.58s29.27-128.83,66.57-172.72Z"/><path class="n" d="M1614.53,132.75c-68.7,0-148.19,33.49-190.16,78.42,4.49,5.09,7.25,8.05,10.16,10.96,44.65-40.46,115.14-74.47,180-74.47,61.39,0,119.85,25.64,164.48,60.44,5.67-3.83,7.73-6,12.04-9.98-46.2-38.53-111.66-65.37-176.52-65.37Z"/><path class="n" d="M1791.84,580.07c-44.42,39.44-113.37,70.57-177.3,70.57s-127.47-28.23-172.19-69.01c-4.86,4.77-9.46,8.68-12.68,12.13,48.3,45,115.82,71.79,184.88,71.79s140.92-27.15,189.24-75.81c-2.89-2.7-7.33-6-11.94-9.67Z"/><path class="n" d="M1797.76,574.19c4.31,6.66,7.38,7.91,10.24,11.35,53.61-61.33,72.93-119.36,72.93-186.39s-26.74-138.43-72.54-186.05c-3.35,3.58-4.39,3.53-10.22,11.26,41.27,44.82,67.86,109.21,67.86,174.79s-30.11,130.93-68.27,175.04Z"/><path class="n" d="M1541.01,352.05c.26-.39.5-.79.76-1.18l-9.05-9.18-67.87-74.9-62.14-73.58c-.35-.41-.15-.72.22-.33l82.06,85.33,56.54,57.01,6.99,7.05c2.98-3.34,6.22-6.46,9.69-9.33l-7.68-7.34-76.73-67.85-70.29-66.23c-.95-.84-2.32.81-1.43,1.72l62.48,75.39,66.92,73.75,9.53,9.69Z"/><path class="n" d="M1681.38,450.69l70.59,74.31,75.09,79.45c.86.91-1.16,3.23-2.09,2.4l-86.6-68.11-77.65-65.07-.25-.25c.44-.29.86-.61,1.29-.91l78.29,66.16,85.02,67.46c.29.23.54-.1.27-.35l-98.16-90.32-56.81-50.64,11-14.13Z"/><path class="n" d="M1900.77,110.08l-119.08,95.55-107.25,89.87-26.1,25.61c.67.31,1.34.61,2.01.94l25.29-24.74,108.37-91.58,116.9-94.65c.4-.31.75.14.38.49l-135.04,126.22-76.98,71.33-23.01,22.78c5.49,4.06,12.02,9.3,16.57,15.5l20.15-20.15,97.49-102.63,103.19-111.21c1.19-1.25-1.6-4.46-2.89-3.31Z"/><path class="n" d="M1551.28,463.09c-3.16-2.94-7.3-4.65-4.52-11.91l-22.37,22.6-71.33,76.98-126.22,135.04c-.34.37-.8.02-.49-.38l94.65-116.9,91.58-108.37,25.35-25.92c-.3-.68-.62-1.36-.9-2.05l-26.26,26.77-89.87,107.25-95.55,119.08c-1.15,1.29,2.06,4.08,3.31,2.89l111.21-103.19,102.63-97.49,16.31-18.71c-2.73-1.14-4.96-3.28-7.55-5.69Z"/><path class="n" d="M1605.24,312.4l3.35-68.03,6.28-74.56c.04-.42.31-.48.3-.06l-1.8,91.95-.2,49.96c.14,0,.27-.02.4-.03,3.61-.17,6.63.59,9.15,1.9l-4.25-69.22-2.23-75c-.06-.98-1.72-.83-1.73.16l-7.09,75.73-3.27,67.35c.36-.05.72-.11,1.08-.16Z"/><path class="n" d="M1613.78,484.49l2.33,40.59,4.31,103.53c.01.28-.31.33-.34.04l-9.65-83.76-5.13-61.09c-.38-.04-.77-.09-1.15-.14l5.32,60.34,10.16,84.98c.06.97,2.44.81,2.47-.17l2.39-84.89,1.53-59.61c-4.08.3-8.17.35-12.23.17Z"/><path class="n" d="M1528.48,399.01c-.01-.19,0-.38-.02-.58l-39.86,2.29-103.53,4.31c-.28.01-.33-.31-.04-.34l83.76-9.65,59.66-5.01c.02-.38.07-.76.09-1.14l-58.86,5.19-84.98,10.16c-.97.06-.8,2.44.17,2.47l84.89,2.39,60.29,1.55c-.8-4.04-1.34-7.96-1.56-11.63Z"/><path class="n" d="M1844.2,399.14l-75.73-7.09-66.36-3.22c.05.36.09.72.13,1.08l67.08,3.3,74.56,6.28c.42.04.48.31.06.3l-91.95-1.8-49.07-.2c.16,3.18.19,6.33.07,9.38l66.38-4.08,75-2.23c.98-.06.83-1.72-.16-1.73Z"/></g></svg>